<mxfile host="app.diagrams.net" modified="2024-07-05T04:16:22.714Z" agent="Mozilla/5.0 (Windows NT 10.0; Win64; x64) AppleWebKit/537.36 (KHTML, like Gecko) Chrome/126.0.0.0 Safari/537.36" etag="l77VShL_lqUnTTndX6Iw" version="24.5.2" type="github">
  <diagram name="第 1 页" id="YKHXXlT_N5-KAXW08Aum">
    <mxGraphModel dx="3072" dy="863" grid="1" gridSize="10" guides="1" tooltips="1" connect="1" arrows="1" fold="1" page="1" pageScale="1" pageWidth="827" pageHeight="1169" math="0" shadow="0">
      <root>
        <mxCell id="0" />
        <mxCell id="1" parent="0" />
        <mxCell id="dFbrZ00dyLEqgvyohcg5-3" value="" style="edgeStyle=orthogonalEdgeStyle;rounded=0;orthogonalLoop=1;jettySize=auto;html=1;" parent="1" target="dFbrZ00dyLEqgvyohcg5-2" edge="1">
          <mxGeometry relative="1" as="geometry">
            <mxPoint x="180" y="400" as="sourcePoint" />
          </mxGeometry>
        </mxCell>
        <mxCell id="dFbrZ00dyLEqgvyohcg5-2" value="募集户处理" style="whiteSpace=wrap;html=1;strokeWidth=2;" parent="1" vertex="1">
          <mxGeometry x="120" y="440" width="120" height="60" as="geometry" />
        </mxCell>
        <mxCell id="dFbrZ00dyLEqgvyohcg5-19" value="" style="edgeStyle=orthogonalEdgeStyle;rounded=0;orthogonalLoop=1;jettySize=auto;html=1;" parent="1" source="dFbrZ00dyLEqgvyohcg5-8" target="dFbrZ00dyLEqgvyohcg5-18" edge="1">
          <mxGeometry relative="1" as="geometry" />
        </mxCell>
        <mxCell id="dFbrZ00dyLEqgvyohcg5-8" value="上海深圳港股通&lt;div&gt;备付金与预付款&lt;div&gt;一同结息到托管户&lt;/div&gt;&lt;/div&gt;" style="shape=parallelogram;perimeter=parallelogramPerimeter;whiteSpace=wrap;html=1;fixedSize=1;strokeWidth=2;" parent="1" vertex="1">
          <mxGeometry x="115" y="650" width="130" height="60" as="geometry" />
        </mxCell>
        <mxCell id="dFbrZ00dyLEqgvyohcg5-15" style="edgeStyle=orthogonalEdgeStyle;rounded=0;orthogonalLoop=1;jettySize=auto;html=1;exitX=0.5;exitY=1;exitDx=0;exitDy=0;exitPerimeter=0;entryX=0.5;entryY=0;entryDx=0;entryDy=0;" parent="1" source="dFbrZ00dyLEqgvyohcg5-11" target="dFbrZ00dyLEqgvyohcg5-8" edge="1">
          <mxGeometry relative="1" as="geometry" />
        </mxCell>
        <mxCell id="dFbrZ00dyLEqgvyohcg5-23" value="是" style="edgeLabel;html=1;align=center;verticalAlign=middle;resizable=0;points=[];" parent="dFbrZ00dyLEqgvyohcg5-15" vertex="1" connectable="0">
          <mxGeometry x="-0.45" y="-1" relative="1" as="geometry">
            <mxPoint as="offset" />
          </mxGeometry>
        </mxCell>
        <mxCell id="dFbrZ00dyLEqgvyohcg5-25" value="" style="edgeStyle=orthogonalEdgeStyle;rounded=0;orthogonalLoop=1;jettySize=auto;html=1;entryX=0;entryY=0.5;entryDx=0;entryDy=0;" parent="1" source="dFbrZ00dyLEqgvyohcg5-11" target="dFbrZ00dyLEqgvyohcg5-28" edge="1">
          <mxGeometry relative="1" as="geometry">
            <mxPoint x="335" y="575" as="targetPoint" />
          </mxGeometry>
        </mxCell>
        <mxCell id="dFbrZ00dyLEqgvyohcg5-29" value="未设置计息账户" style="edgeLabel;html=1;align=center;verticalAlign=middle;resizable=0;points=[];" parent="dFbrZ00dyLEqgvyohcg5-25" vertex="1" connectable="0">
          <mxGeometry x="-0.0537" y="2" relative="1" as="geometry">
            <mxPoint x="1" as="offset" />
          </mxGeometry>
        </mxCell>
        <mxCell id="dFbrZ00dyLEqgvyohcg5-11" value="此产品&lt;div&gt;是否有计息&lt;div&gt;设置&lt;/div&gt;&lt;/div&gt;" style="strokeWidth=2;html=1;shape=mxgraph.flowchart.decision;whiteSpace=wrap;" parent="1" vertex="1">
          <mxGeometry x="142.5" y="540" width="75" height="70" as="geometry" />
        </mxCell>
        <mxCell id="dFbrZ00dyLEqgvyohcg5-12" style="edgeStyle=orthogonalEdgeStyle;rounded=0;orthogonalLoop=1;jettySize=auto;html=1;exitX=0.5;exitY=1;exitDx=0;exitDy=0;entryX=0.5;entryY=0;entryDx=0;entryDy=0;entryPerimeter=0;" parent="1" source="dFbrZ00dyLEqgvyohcg5-2" target="dFbrZ00dyLEqgvyohcg5-11" edge="1">
          <mxGeometry relative="1" as="geometry" />
        </mxCell>
        <mxCell id="dFbrZ00dyLEqgvyohcg5-21" value="" style="edgeStyle=orthogonalEdgeStyle;rounded=0;orthogonalLoop=1;jettySize=auto;html=1;entryX=1;entryY=0.5;entryDx=0;entryDy=0;" parent="1" source="dFbrZ00dyLEqgvyohcg5-18" target="dFbrZ00dyLEqgvyohcg5-30" edge="1">
          <mxGeometry relative="1" as="geometry">
            <mxPoint x="20" y="790" as="targetPoint" />
          </mxGeometry>
        </mxCell>
        <mxCell id="dFbrZ00dyLEqgvyohcg5-22" value="取不到设置数据" style="edgeLabel;html=1;align=center;verticalAlign=middle;resizable=0;points=[];" parent="dFbrZ00dyLEqgvyohcg5-21" vertex="1" connectable="0">
          <mxGeometry x="0.05" relative="1" as="geometry">
            <mxPoint as="offset" />
          </mxGeometry>
        </mxCell>
        <mxCell id="dFbrZ00dyLEqgvyohcg5-34" value="" style="edgeStyle=orthogonalEdgeStyle;rounded=0;orthogonalLoop=1;jettySize=auto;html=1;" parent="1" source="dFbrZ00dyLEqgvyohcg5-18" target="dFbrZ00dyLEqgvyohcg5-33" edge="1">
          <mxGeometry relative="1" as="geometry" />
        </mxCell>
        <mxCell id="dFbrZ00dyLEqgvyohcg5-18" value="&lt;div&gt;产品&lt;/div&gt;账户计息设置集取一条" style="rhombus;whiteSpace=wrap;html=1;strokeWidth=2;" parent="1" vertex="1">
          <mxGeometry x="140" y="750" width="80" height="80" as="geometry" />
        </mxCell>
        <mxCell id="dFbrZ00dyLEqgvyohcg5-27" value="" style="ellipse;whiteSpace=wrap;html=1;aspect=fixed;" parent="1" vertex="1">
          <mxGeometry x="165" y="370" width="30" height="30" as="geometry" />
        </mxCell>
        <mxCell id="dFbrZ00dyLEqgvyohcg5-28" value="" style="ellipse;shape=doubleEllipse;whiteSpace=wrap;html=1;aspect=fixed;" parent="1" vertex="1">
          <mxGeometry x="320" y="560" width="30" height="30" as="geometry" />
        </mxCell>
        <mxCell id="dFbrZ00dyLEqgvyohcg5-30" value="" style="ellipse;shape=doubleEllipse;whiteSpace=wrap;html=1;aspect=fixed;" parent="1" vertex="1">
          <mxGeometry x="10" y="775" width="30" height="30" as="geometry" />
        </mxCell>
        <mxCell id="dFbrZ00dyLEqgvyohcg5-36" value="" style="edgeStyle=orthogonalEdgeStyle;rounded=0;orthogonalLoop=1;jettySize=auto;html=1;" parent="1" source="dFbrZ00dyLEqgvyohcg5-33" target="dFbrZ00dyLEqgvyohcg5-35" edge="1">
          <mxGeometry relative="1" as="geometry" />
        </mxCell>
        <mxCell id="dFbrZ00dyLEqgvyohcg5-33" value="节假日&lt;div&gt;&amp;amp;计息方法13&amp;amp;券商普通&lt;div&gt;账户 虚拟一个12的计息设置&lt;/div&gt;&lt;/div&gt;" style="shape=trapezoid;perimeter=trapezoidPerimeter;whiteSpace=wrap;html=1;fixedSize=1;strokeWidth=2;" parent="1" vertex="1">
          <mxGeometry x="95" y="860" width="170" height="90" as="geometry" />
        </mxCell>
        <mxCell id="dFbrZ00dyLEqgvyohcg5-37" style="edgeStyle=orthogonalEdgeStyle;rounded=0;orthogonalLoop=1;jettySize=auto;html=1;exitX=0;exitY=0.5;exitDx=0;exitDy=0;entryX=0.5;entryY=1;entryDx=0;entryDy=0;" parent="1" source="dFbrZ00dyLEqgvyohcg5-35" target="dFbrZ00dyLEqgvyohcg5-30" edge="1">
          <mxGeometry relative="1" as="geometry" />
        </mxCell>
        <mxCell id="dFbrZ00dyLEqgvyohcg5-38" value="不在有效期" style="edgeLabel;html=1;align=center;verticalAlign=middle;resizable=0;points=[];" parent="dFbrZ00dyLEqgvyohcg5-37" vertex="1" connectable="0">
          <mxGeometry x="-0.0923" y="-2" relative="1" as="geometry">
            <mxPoint as="offset" />
          </mxGeometry>
        </mxCell>
        <mxCell id="dFbrZ00dyLEqgvyohcg5-44" value="" style="edgeStyle=orthogonalEdgeStyle;rounded=0;orthogonalLoop=1;jettySize=auto;html=1;" parent="1" source="dFbrZ00dyLEqgvyohcg5-35" target="dFbrZ00dyLEqgvyohcg5-43" edge="1">
          <mxGeometry relative="1" as="geometry" />
        </mxCell>
        <mxCell id="dFbrZ00dyLEqgvyohcg5-35" value="做账日期是否在计息设置有效性期" style="rhombus;whiteSpace=wrap;html=1;strokeWidth=2;" parent="1" vertex="1">
          <mxGeometry x="80" y="990" width="200" height="40" as="geometry" />
        </mxCell>
        <mxCell id="dFbrZ00dyLEqgvyohcg5-46" value="" style="edgeStyle=orthogonalEdgeStyle;rounded=0;orthogonalLoop=1;jettySize=auto;html=1;entryX=0.5;entryY=0;entryDx=0;entryDy=0;" parent="1" source="dFbrZ00dyLEqgvyohcg5-43" target="epx687CUHxSDBbEXInvg-7" edge="1">
          <mxGeometry relative="1" as="geometry">
            <mxPoint x="-100" y="1160" as="targetPoint" />
          </mxGeometry>
        </mxCell>
        <mxCell id="dFbrZ00dyLEqgvyohcg5-47" value="等于0，先结息后计息" style="edgeLabel;html=1;align=center;verticalAlign=middle;resizable=0;points=[];" parent="dFbrZ00dyLEqgvyohcg5-46" vertex="1" connectable="0">
          <mxGeometry x="-0.2571" y="-3" relative="1" as="geometry">
            <mxPoint as="offset" />
          </mxGeometry>
        </mxCell>
        <mxCell id="dFbrZ00dyLEqgvyohcg5-50" value="" style="edgeStyle=orthogonalEdgeStyle;rounded=0;orthogonalLoop=1;jettySize=auto;html=1;" parent="1" source="dFbrZ00dyLEqgvyohcg5-43" target="dFbrZ00dyLEqgvyohcg5-49" edge="1">
          <mxGeometry relative="1" as="geometry" />
        </mxCell>
        <mxCell id="dFbrZ00dyLEqgvyohcg5-51" value="大于0，先计息后结息" style="edgeLabel;html=1;align=center;verticalAlign=middle;resizable=0;points=[];" parent="dFbrZ00dyLEqgvyohcg5-50" vertex="1" connectable="0">
          <mxGeometry x="-0.0333" relative="1" as="geometry">
            <mxPoint as="offset" />
          </mxGeometry>
        </mxCell>
        <mxCell id="dFbrZ00dyLEqgvyohcg5-43" value="记账日期是否大于0" style="rhombus;whiteSpace=wrap;html=1;strokeWidth=2;" parent="1" vertex="1">
          <mxGeometry x="80" y="1110" width="200" height="40" as="geometry" />
        </mxCell>
        <mxCell id="dFbrZ00dyLEqgvyohcg5-45" value="合并同类其他账户的上一交易日结息金额" style="whiteSpace=wrap;html=1;strokeWidth=2;" parent="1" vertex="1">
          <mxGeometry x="-660" y="1360" width="120" height="60" as="geometry" />
        </mxCell>
        <mxCell id="dFbrZ00dyLEqgvyohcg5-49" value="" style="rounded=1;whiteSpace=wrap;html=1;strokeWidth=2;arcSize=0;" parent="1" vertex="1">
          <mxGeometry x="400" y="1200" width="120" height="60" as="geometry" />
        </mxCell>
        <mxCell id="epx687CUHxSDBbEXInvg-14" style="edgeStyle=orthogonalEdgeStyle;rounded=0;orthogonalLoop=1;jettySize=auto;html=1;exitX=0;exitY=1;exitDx=0;exitDy=0;entryX=0.5;entryY=0;entryDx=0;entryDy=0;" edge="1" parent="1" source="epx687CUHxSDBbEXInvg-7" target="dFbrZ00dyLEqgvyohcg5-45">
          <mxGeometry relative="1" as="geometry">
            <mxPoint x="-410" y="1390" as="targetPoint" />
            <Array as="points">
              <mxPoint x="-420" y="1310" />
              <mxPoint x="-600" y="1310" />
            </Array>
          </mxGeometry>
        </mxCell>
        <mxCell id="epx687CUHxSDBbEXInvg-15" value="不需要结息" style="edgeLabel;html=1;align=center;verticalAlign=middle;resizable=0;points=[];" vertex="1" connectable="0" parent="epx687CUHxSDBbEXInvg-14">
          <mxGeometry x="-0.1448" y="3" relative="1" as="geometry">
            <mxPoint as="offset" />
          </mxGeometry>
        </mxCell>
        <mxCell id="epx687CUHxSDBbEXInvg-16" style="edgeStyle=orthogonalEdgeStyle;rounded=0;orthogonalLoop=1;jettySize=auto;html=1;exitX=1;exitY=1;exitDx=0;exitDy=0;entryX=0.5;entryY=0;entryDx=0;entryDy=0;" edge="1" parent="1" source="epx687CUHxSDBbEXInvg-7" target="epx687CUHxSDBbEXInvg-17">
          <mxGeometry relative="1" as="geometry">
            <mxPoint x="-150" y="1320" as="targetPoint" />
            <Array as="points">
              <mxPoint x="-320" y="1310" />
              <mxPoint x="-135" y="1310" />
            </Array>
          </mxGeometry>
        </mxCell>
        <mxCell id="epx687CUHxSDBbEXInvg-18" value="需要结息" style="edgeLabel;html=1;align=center;verticalAlign=middle;resizable=0;points=[];" vertex="1" connectable="0" parent="epx687CUHxSDBbEXInvg-16">
          <mxGeometry x="-0.0169" y="2" relative="1" as="geometry">
            <mxPoint as="offset" />
          </mxGeometry>
        </mxCell>
        <mxCell id="epx687CUHxSDBbEXInvg-7" value="判断当前账户是否需要结息" style="rhombus;whiteSpace=wrap;html=1;strokeWidth=2;" vertex="1" parent="1">
          <mxGeometry x="-470" y="1220" width="200" height="40" as="geometry" />
        </mxCell>
        <mxCell id="epx687CUHxSDBbEXInvg-11" value="" style="shape=curlyBracket;whiteSpace=wrap;html=1;rounded=1;flipH=1;labelPosition=right;verticalLabelPosition=middle;align=left;verticalAlign=middle;" vertex="1" parent="1">
          <mxGeometry x="-490" y="1200" width="20" height="80" as="geometry" />
        </mxCell>
        <mxCell id="epx687CUHxSDBbEXInvg-12" value="&lt;div style=&quot;text-align: left;&quot;&gt;1.当前设置是5001 存款账户 2 托管&lt;/div&gt;&lt;div style=&quot;text-align: left;&quot;&gt;&amp;nbsp;&lt;span style=&quot;white-space: pre;&quot;&gt;&#x9;&lt;/span&gt;&amp;amp;&amp;amp; 同步指令中不包含托管户结息时&lt;/div&gt;&lt;div style=&quot;text-align: left;&quot;&gt;&lt;br&gt;&lt;/div&gt;&lt;div style=&quot;text-align: left;&quot;&gt;2.或 5003 保证金 1、2、3&amp;nbsp;&amp;nbsp;&lt;/div&gt;&lt;div style=&quot;text-align: left;&quot;&gt;&lt;span style=&quot;white-space: pre;&quot;&gt;&#x9;&lt;/span&gt;5002 备付金4、5、6、7、8&lt;/div&gt;" style="text;html=1;align=center;verticalAlign=middle;resizable=0;points=[];autosize=1;strokeColor=none;fillColor=none;" vertex="1" parent="1">
          <mxGeometry x="-722" y="1199" width="240" height="90" as="geometry" />
        </mxCell>
        <mxCell id="epx687CUHxSDBbEXInvg-17" value="判断当前账户是否需要结息" style="whiteSpace=wrap;html=1;strokeWidth=2;" vertex="1" parent="1">
          <mxGeometry x="-195" y="1360" width="120" height="60" as="geometry" />
        </mxCell>
        <mxCell id="epx687CUHxSDBbEXInvg-20" value="&lt;div style=&quot;text-align: left;&quot;&gt;条件：&lt;br&gt;&lt;/div&gt;&lt;div style=&quot;text-align: left;&quot;&gt;1.账户类型-5001- 存款账户&lt;/div&gt;&lt;div style=&quot;text-align: left;&quot;&gt;2.&lt;span style=&quot;background-color: initial; text-align: center;&quot;&gt;存款账户类型明细-2- 托管&lt;/span&gt;&lt;br&gt;&lt;/div&gt;&lt;div style=&quot;text-align: left;&quot;&gt;&lt;span style=&quot;background-color: initial; text-align: center;&quot;&gt;数据：&lt;/span&gt;&lt;/div&gt;&lt;div style=&quot;text-align: left;&quot;&gt;&lt;span style=&quot;background-color: initial; text-align: center;&quot;&gt;1.当天手工录入的结息流水&lt;/span&gt;&lt;/div&gt;&lt;div style=&quot;text-align: left;&quot;&gt;&lt;span style=&quot;background-color: initial; text-align: center;&quot;&gt;2.账户计息设置数据&lt;/span&gt;&lt;/div&gt;" style="text;html=1;align=center;verticalAlign=middle;resizable=0;points=[];autosize=1;strokeColor=none;fillColor=none;" vertex="1" parent="1">
          <mxGeometry x="-885" y="1345" width="170" height="100" as="geometry" />
        </mxCell>
        <mxCell id="epx687CUHxSDBbEXInvg-21" value="" style="shape=curlyBracket;whiteSpace=wrap;html=1;rounded=1;flipH=1;labelPosition=right;verticalLabelPosition=middle;align=left;verticalAlign=middle;" vertex="1" parent="1">
          <mxGeometry x="-690" y="1350" width="20" height="80" as="geometry" />
        </mxCell>
      </root>
    </mxGraphModel>
  </diagram>
</mxfile>
